<svg width="279" height="355" fill="none" xmlns="http://www.w3.org/2000/svg"><mask id="a" fill="#fff"><path fill-rule="evenodd" clip-rule="evenodd" d="M236.895 0h-14.92l-14.691 11.54L192.594 0h-14.698l-14.691 11.54L148.515 0h-14.92l-14.469 11.365L104.657 0h-14.92l-14.69 11.54L60.357 0H45.657l-14.69 11.54L16.278 0h-7.35v355h8.235l13.805-10.843L44.772 355h16.47l13.805-10.843L88.85 355H105.1l14.026-11.017L133.152 355h16.249l13.804-10.843L177.01 355h16.47l13.804-10.843L221.089 355h16.249l14.025-11.017L265.389 355h5.799V0h-5.356l-14.469 11.365L236.895 0z"/></mask><path fill-rule="evenodd" clip-rule="evenodd" d="M236.895 0h-14.92l-14.691 11.54L192.594 0h-14.698l-14.691 11.54L148.515 0h-14.92l-14.469 11.365L104.657 0h-14.92l-14.69 11.54L60.357 0H45.657l-14.69 11.54L16.278 0h-7.35v355h8.235l13.805-10.843L44.772 355h16.47l13.805-10.843L88.85 355H105.1l14.026-11.017L133.152 355h16.249l13.804-10.843L177.01 355h16.47l13.804-10.843L221.089 355h16.249l14.025-11.017L265.389 355h5.799V0h-5.356l-14.469 11.365L236.895 0z" fill="#F2F2F2"/><path d="M221.975 0v-.3h-.104l-.082.064.186.236zm14.92 0l.185-.236-.082-.064h-.103V0zm-29.611 11.54l-.185.235.185.146.185-.146-.185-.236zM192.594 0l.185-.236-.082-.064h-.103V0zm-14.698 0v-.3h-.104l-.082.064.186.236zm-14.691 11.54l-.185.235.185.146.185-.146-.185-.236zM148.515 0l.185-.236-.082-.064h-.103V0zm-14.92 0v-.3h-.104l-.082.064.186.236zm-14.469 11.365l-.185.236.185.146.185-.146-.185-.236zM104.657 0l.185-.236-.081-.064h-.104V0zm-14.92 0v-.3h-.103l-.082.064.185.236zm-14.69 11.54l-.185.235.185.146.185-.146-.185-.236zM60.357 0l.185-.236L60.46-.3h-.104V0zM45.657 0v-.3h-.104l-.081.064.185.236zm-14.69 11.54l-.186.235.186.146.185-.146-.185-.236zM16.278 0l.184-.236-.081-.064h-.104V0zm-7.35 0v-.3h-.3V0h.3zm0 355h-.3v.3h.3v-.3zm8.235 0v.3h.104l.082-.064-.186-.236zm13.805-10.843l.185-.236-.185-.146-.186.146.186.236zM44.772 355l-.185.236.081.064h.104v-.3zm16.47 0v.3h.104l.082-.064-.185-.236zm13.805-10.843l.185-.236-.185-.146-.185.146.185.236zM88.85 355l-.185.236.082.064h.103v-.3zm16.249 0v.3h.104l.081-.064-.185-.236zm14.026-11.017l.185-.236-.185-.146-.185.146.185.236zM133.152 355l-.186.236.082.064h.104v-.3zm16.249 0v.3h.104l.081-.064-.185-.236zm13.804-10.843l.185-.236-.185-.146-.185.146.185.236zM177.01 355l-.186.236.082.064h.104v-.3zm16.47 0v.3h.104l.081-.064-.185-.236zm13.804-10.843l.185-.236-.185-.146-.185.146.185.236zM221.089 355l-.186.236.082.064h.104v-.3zm16.249 0v.3h.103l.082-.064-.185-.236zm14.025-11.017l.186-.236-.186-.146-.185.146.185.236zM265.389 355l-.185.236.082.064h.103v-.3zm5.799 0v.3h.3v-.3h-.3zm0-355h.3v-.3h-.3V0zm-5.356 0v-.3h-.103l-.082.064.185.236zm-14.469 11.365l-.185.236.185.146.186-.146-.186-.236zM221.975.3h14.92v-.6h-14.92v.6zm-14.506 11.475L222.16.235l-.371-.47-14.69 11.538.37.472zM192.408.235l14.691 11.54.37-.472-14.69-11.539-.371.472zM177.896.3h14.698v-.6h-14.698v.6zM163.39 11.775L178.081.235l-.371-.47-14.69 11.538.37.472zM148.329.235l14.691 11.54.37-.472L148.7-.236l-.371.472zM133.595.3h14.92v-.6h-14.92v.6zm-14.284 11.301L133.78.236l-.371-.472-14.468 11.365.37.472zM104.472.236L118.941 11.6l.37-.472L104.842-.236l-.37.472zM89.737.3h14.92v-.6h-14.92v.6zM75.232 11.775L89.922.235l-.37-.47-14.69 11.538.37.472zM60.172.235l14.69 11.54.37-.472L60.542-.236l-.37.472zM45.657.3h14.698v-.6H45.658v.6zM31.153 11.775L45.843.235l-.37-.47-14.69 11.538.37.472zM16.092.235l14.69 11.54.37-.472L16.463-.236l-.37.472zM8.928.3h7.35v-.6h-7.35v.6zm.3 354.7V0h-.6v355h.6zm7.935-.3H8.928v.6h8.235v-.6zm13.62-10.779l-13.805 10.843.37.472 13.805-10.843-.37-.472zm14.174 10.843l-13.804-10.843-.37.472 13.804 10.843.37-.472zm16.285-.064h-16.47v.6h16.47v-.6zm13.62-10.779l-13.805 10.843.37.472 13.805-10.843-.37-.472zm14.175 10.843l-13.805-10.843-.37.472 13.804 10.843.37-.472zm16.063-.064H88.851v.6H105.1v-.6zm13.841-10.953l-14.026 11.017.37.472 14.026-11.017-.37-.472zm14.396 11.017l-14.026-11.017-.37.472 14.025 11.017.371-.472zm16.064-.064h-16.249v.6h16.249v-.6zm13.619-10.779l-13.805 10.843.371.472 13.804-10.843-.37-.472zm14.175 10.843l-13.805-10.843-.37.472 13.804 10.843.371-.472zm16.285-.064h-16.47v.6h16.47v-.6zm13.619-10.779l-13.805 10.843.371.472 13.804-10.843-.37-.472zm14.175 10.843l-13.805-10.843-.37.472 13.804 10.843.371-.472zm16.064-.064h-16.249v.6h16.249v-.6zm.185.536l14.026-11.017-.371-.472-14.026 11.017.371.472zm13.655-11.017l14.026 11.017.371-.472-14.026-11.017-.371.472zm20.01 10.481h-5.799v.6h5.799v-.6zm-.3-354.7v355h.6V0h-.6zm-5.056.3h5.356v-.6h-5.356v.6zm-14.283 11.301L266.018.236l-.371-.472-14.469 11.365.371.472zM236.709.236L251.178 11.6l.371-.472L237.08-.236l-.371.472z" fill="#000" mask="url(#a)"/><path d="M45.174 56.847H41.84v-1.244h3.333v1.244zm4.266 0h-3.333v-1.244h3.333v1.244zm4.265 0h-3.332v-1.244h3.332v1.244zm4.266 0h-3.333v-1.244h3.333v1.244zm4.265 0h-3.332v-1.244h3.332v1.244zm4.266 0h-3.333v-1.244h3.333v1.244zm4.266 0h-3.333v-1.244h3.333v1.244zm4.265 0h-3.332v-1.244h3.332v1.244zm4.266 0h-3.333v-1.244H79.3v1.244zm4.265 0h-3.332v-1.244h3.332v1.244zm4.266 0h-3.332v-1.244h3.332v1.244zm4.266 0h-3.333v-1.244h3.333v1.244zm4.265 0H93.03v-1.244h3.332v1.244zm4.266 0h-3.333v-1.244h3.333v1.244zm4.266 0h-3.333v-1.244h3.333v1.244zm4.265 0h-3.332v-1.244h3.332v1.244zm4.266 0h-3.333v-1.244h3.333v1.244zm4.265 0h-3.332v-1.244h3.332v1.244zm4.266 0h-3.332v-1.244h3.332v1.244zm4.266 0h-3.333v-1.244h3.333v1.244zm4.265 0h-3.332v-1.244h3.332v1.244zm4.266 0h-3.333v-1.244h3.333v1.244zm4.266 0h-3.333v-1.244h3.333v1.244zm4.265 0h-3.332v-1.244h3.332v1.244zm4.266 0h-3.333v-1.244h3.333v1.244zm4.265 0h-3.332v-1.244h3.332v1.244zm4.266 0h-3.332v-1.244h3.332v1.244zm4.266 0h-3.333v-1.244h3.333v1.244zm4.265 0h-3.332v-1.244h3.332v1.244zm4.266 0h-3.333v-1.244h3.333v1.244zm4.266 0h-3.333v-1.244h3.333v1.244zm4.265 0h-3.332v-1.244h3.332v1.244zm4.266 0h-3.333v-1.244h3.333v1.244zm4.265 0h-3.332v-1.244h3.332v1.244zm4.266 0h-3.332v-1.244h3.332v1.244zm4.266 0h-3.333v-1.244h3.333v1.244zm4.265 0h-3.332v-1.244h3.332v1.244zm4.266 0h-3.333v-1.244h3.333v1.244zm4.266 0h-3.333v-1.244h3.333v1.244zm4.265 0h-3.332v-1.244h3.332v1.244zm4.266 0h-3.333v-1.244h3.333v1.244zm4.265 0h-3.332v-1.244h3.332v1.244zm4.266 0h-3.332v-1.244h3.332v1.244zm4.266 0h-3.333v-1.244h3.333v1.244zm4.265 0h-3.332v-1.244h3.332v1.244zm4.266 0h-3.333v-1.244h3.333v1.244zM45.174 255.065H41.84v-1.244h3.333v1.244zm4.266 0h-3.333v-1.244h3.333v1.244zm4.265 0h-3.332v-1.244h3.332v1.244zm4.266 0h-3.333v-1.244h3.333v1.244zm4.265 0h-3.332v-1.244h3.332v1.244zm4.266 0h-3.333v-1.244h3.333v1.244zm4.266 0h-3.333v-1.244h3.333v1.244zm4.265 0h-3.332v-1.244h3.332v1.244zm4.266 0h-3.333v-1.244H79.3v1.244zm4.265 0h-3.332v-1.244h3.332v1.244zm4.266 0h-3.332v-1.244h3.332v1.244zm4.266 0h-3.333v-1.244h3.333v1.244zm4.265 0H93.03v-1.244h3.332v1.244zm4.266 0h-3.333v-1.244h3.333v1.244zm4.266 0h-3.333v-1.244h3.333v1.244zm4.265 0h-3.332v-1.244h3.332v1.244zm4.266 0h-3.333v-1.244h3.333v1.244zm4.265 0h-3.332v-1.244h3.332v1.244zm4.266 0h-3.332v-1.244h3.332v1.244zm4.266 0h-3.333v-1.244h3.333v1.244zm4.265 0h-3.332v-1.244h3.332v1.244zm4.266 0h-3.333v-1.244h3.333v1.244zm4.266 0h-3.333v-1.244h3.333v1.244zm4.265 0h-3.332v-1.244h3.332v1.244zm4.266 0h-3.333v-1.244h3.333v1.244zm4.265 0h-3.332v-1.244h3.332v1.244zm4.266 0h-3.332v-1.244h3.332v1.244zm4.266 0h-3.333v-1.244h3.333v1.244zm4.265 0h-3.332v-1.244h3.332v1.244zm4.266 0h-3.333v-1.244h3.333v1.244zm4.266 0h-3.333v-1.244h3.333v1.244zm4.265 0h-3.332v-1.244h3.332v1.244zm4.266 0h-3.333v-1.244h3.333v1.244zm4.265 0h-3.332v-1.244h3.332v1.244zm4.266 0h-3.332v-1.244h3.332v1.244zm4.266 0h-3.333v-1.244h3.333v1.244zm4.265 0h-3.332v-1.244h3.332v1.244zm4.266 0h-3.333v-1.244h3.333v1.244zm4.266 0h-3.333v-1.244h3.333v1.244zm4.265 0h-3.332v-1.244h3.332v1.244zm4.266 0h-3.333v-1.244h3.333v1.244zm4.265 0h-3.332v-1.244h3.332v1.244zm4.266 0h-3.332v-1.244h3.332v1.244zm4.266 0h-3.333v-1.244h3.333v1.244zm4.265 0h-3.332v-1.244h3.332v1.244zm4.266 0h-3.333v-1.244h3.333v1.244z" fill="#000"/></svg>