<svg width="298" height="420" fill="none" xmlns="http://www.w3.org/2000/svg"><path fill="#fff" d="M0 0h298v420H0z"/><path fill="#fff" d="M-31-44h361v486H-31z"/><mask id="a" fill="#fff"><path fill-rule="evenodd" clip-rule="evenodd" d="M259.497 0h-17.88l-16.23 13.273L209.158 0h-17.627l-16.23 13.273L159.072 0h-17.879l-15.977 13.067L109.238 0h-17.88L75.13 13.273 58.9 0H41.272L25.043 13.273 8.814 0H0v420h9.066l15.977-13.067L41.02 420h18.132l15.977-13.067L91.107 420h17.879l16.23-13.273L141.445 420h17.879l15.977-13.067L191.279 420h18.131l15.977-13.067L241.365 420h17.88l16.229-13.273L291.703 420H298V0h-6.549l-15.977 13.067L259.497 0z"/></mask><path fill-rule="evenodd" clip-rule="evenodd" d="M259.497 0h-17.88l-16.23 13.273L209.158 0h-17.627l-16.23 13.273L159.072 0h-17.879l-15.977 13.067L109.238 0h-17.88L75.13 13.273 58.9 0H41.272L25.043 13.273 8.814 0H0v420h9.066l15.977-13.067L41.02 420h18.132l15.977-13.067L91.107 420h17.879l16.23-13.273L141.445 420h17.879l15.977-13.067L191.279 420h18.131l15.977-13.067L241.365 420h17.88l16.229-13.273L291.703 420H298V0h-6.549l-15.977 13.067L259.497 0z" fill="#F2F2F2"/><path d="M241.617 0v-.3h-.107l-.083.068.19.232zm17.88 0l.189-.232-.082-.068h-.107V0zm-34.11 13.273l-.189.232.189.156.19-.156-.19-.232zM209.158 0l.19-.232-.083-.068h-.107V0zm-17.627 0v-.3h-.107l-.083.068.19.232zm-16.23 13.273l-.189.232.189.156.19-.156-.19-.232zM159.072 0l.19-.232-.083-.068h-.107V0zm-17.879 0v-.3h-.107l-.083.068.19.232zm-15.977 13.067l-.19.232.19.156.189-.155-.189-.233zM109.238 0l.19-.232-.083-.068h-.107V0zm-17.88 0v-.3h-.106l-.083.068.19.232zM75.13 13.273l-.19.232.19.156.19-.156-.19-.232zM58.9 0l.19-.232-.083-.068H58.9V0zM41.272 0v-.3h-.107l-.083.068.19.232zM25.043 13.273l-.19.232.19.156.19-.156-.19-.232zM8.814 0l.19-.232L8.92-.3h-.107V0zM0 0v-.3h-.3V0H0zm0 420h-.3v.3H0v-.3zm9.066 0v.3h.107l.083-.068-.19-.232zm15.977-13.067l.19-.232-.19-.156-.19.156.19.232zM41.02 420l-.19.232.083.068h.107v-.3zm18.132 0v.3h.107l.083-.068-.19-.232zm15.977-13.067l.19-.232-.19-.156-.19.156.19.232zM91.107 420l-.19.232.083.068h.107v-.3zm17.879 0v.3h.107l.083-.068-.19-.232zm16.23-13.273l.189-.232-.189-.156-.19.156.19.232zM141.445 420l-.19.232.083.068h.107v-.3zm17.879 0v.3h.107l.083-.068-.19-.232zm15.977-13.067l.19-.232-.19-.156-.189.156.189.232zM191.279 420l-.19.232.083.068h.107v-.3zm18.131 0v.3h.107l.083-.068-.19-.232zm15.977-13.067l.19-.232-.19-.156-.189.156.189.232zM241.365 420l-.19.232.083.068h.107v-.3zm17.88 0v.3h.107l.083-.068-.19-.232zm16.229-13.273l.19-.232-.19-.156-.19.156.19.232zM291.703 420l-.19.232.083.068h.107v-.3zm6.297 0v.3h.3v-.3h-.3zm0-420h.3v-.3h-.3V0zm-6.549 0v-.3h-.107l-.083.068.19.232zm-15.977 13.067l-.19.232.19.156.19-.155-.19-.233zM241.617.3h17.88v-.6h-17.88v.6zm-16.04 13.205L241.807.232l-.38-.464-16.229 13.273.379.464zM208.968.232l16.23 13.273.379-.464L209.348-.232l-.38.464zM191.531.3h17.627v-.6h-17.627v.6zm-16.04 13.205L191.721.232l-.38-.464-16.229 13.273.379.464zM158.882.232l16.23 13.273.379-.464L159.262-.232l-.38.464zM141.193.3h17.879v-.6h-17.879v.6zm-15.788 13L141.383.232l-.38-.464-15.977 13.067.379.464zM109.048.232L125.026 13.3l.379-.465L109.428-.232l-.38.464zM91.358.3h17.88v-.6h-17.88v.6zM75.32 13.505L91.55.232l-.38-.464-16.23 13.273.38.464zM58.711.232L74.94 13.505l.38-.464L59.09-.232l-.38.464zM41.272.3H58.9v-.6H41.272v.6zM25.233 13.505L41.463.232l-.38-.464-16.23 13.273.38.464zM8.624.232l16.23 13.273.379-.464L9.003-.232l-.379.464zM0 .3h8.814v-.6H0v.6zM.3 420V0h-.6v420h.6zm8.766-.3H0v.6h9.066v-.6zm15.787-12.999L8.876 419.768l.38.464 15.977-13.067-.38-.464zm16.357 13.067l-15.977-13.067-.38.464 15.977 13.067.38-.464zm17.942-.068H41.02v.6h18.132v-.6zm15.788-12.999l-15.978 13.067.38.464 15.977-13.067-.38-.464zm16.357 13.067l-15.978-13.067-.38.464 15.978 13.067.38-.464zm17.689-.068h-17.88v.6h17.88v-.6zm16.04-13.205l-16.23 13.273.38.464 16.229-13.273-.379-.464zm16.609 13.273l-16.23-13.273-.379.464 16.229 13.273.38-.464zm17.689-.068h-17.879v.6h17.879v-.6zm15.788-12.999l-15.978 13.067.38.464 15.977-13.067-.379-.464zm16.357 13.067l-15.978-13.067-.379.464 15.977 13.067.38-.464zm17.941-.068h-18.131v.6h18.131v-.6zm15.788-12.999l-15.978 13.067.38.464 15.977-13.067-.379-.464zm16.357 13.067l-15.978-13.067-.379.464 15.977 13.067.38-.464zm17.69-.068h-17.88v.6h17.88v-.6zm.19.532l16.229-13.273-.38-.464-16.229 13.273.38.464zm15.849-13.273l16.229 13.273.38-.464-16.229-13.273-.38.464zM298 419.7h-6.297v.6H298v-.6zM297.7 0v420h.6V0h-.6zm-6.249.3H298v-.6h-6.549v.6zm-15.787 13L291.641.232l-.38-.464-15.977 13.067.38.464zM259.307.232L275.284 13.3l.38-.465L259.686-.232l-.379.464z" fill="#000" mask="url(#a)"/></svg>